<svg xmlns="http://www.w3.org/2000/svg" viewBox="0 0 2860.64 1831.15"><defs><style>.cls-1{isolation:isolate;}.cls-2,.cls-3{fill:#e9e9e9;}.cls-3{opacity:0.5;}.cls-4{fill:#b8c0c7;}.cls-5{fill:#59a6bf;}.cls-6{fill:#151f2c;}.cls-7{fill:#ee805f;}.cls-8{fill:#384152;}.cls-9{fill:#458fa1;}.cls-10{fill:#de6b4d;}.cls-11{fill:#fff;}.cls-12{fill:#0f1536;}.cls-13{fill:#aec3ff;}.cls-14{fill:#2a4a7c;}.cls-15{fill:#ebf3fa;}.cls-16{fill:#da673e;}.cls-17{mix-blend-mode:multiply;}</style></defs><g class="cls-1"><g id="_ëîé_1" data-name="‘ëîé_1"><path class="cls-2" d="M1031.31,1905.54s-214.6-29.17-316.49-6.39-354.31-100.81-270.65-294.8,189.66-241.68,80.22-347.76S369.26,876,482.09,762.44s146.8,3.28,236.69-38.53S694.52,464,948.48,402.36,1399.76,527,1515.22,505.92s293-150,417.61-144.54S2042,556.63,2207.32,545.56,2502.46,515.38,2609.58,677s81.35,366.54-20.77,447.53-82.2,189.91,106.09,196.16,167.08,232.16,13.44,398.94-285.46,168.62-438.93,179.55S1031.31,1905.54,1031.31,1905.54Z" transform="translate(-273.22 -75.33)"/><path class="cls-3" d="M2214.62,543.62s8.46-168.84,87.39-274.69c10.48-14.07,32.89-7.11,33.73,10.41,0,.29,0,.59,0,.89C2336.72,310.18,2249.33,442.8,2214.62,543.62Z" transform="translate(-273.22 -75.33)"/><path class="cls-3" d="M2207.5,592.28s71.09-215.21,210.76-317.84c8.52-6.26,20.72-5,27.29,3.24,4.28,5.39,6.63,14.11,3.22,28.22C2439.67,343.52,2285.32,478.66,2207.5,592.28Z" transform="translate(-273.22 -75.33)"/><path class="cls-3" d="M643.71,646.86S572.87,523.29,473.16,473.94c-13.25-6.56-27.42,7.23-21.36,20.71l.32.68C462.84,518.18,579.14,584.41,643.71,646.86Z" transform="translate(-273.22 -75.33)"/><path class="cls-3" d="M667.65,680.69S532.06,546.22,388,522.49c-8.79-1.45-17.49,4.13-19.26,12.86-1.16,5.68.41,13.13,8.36,22.42C398.26,582.55,565.81,625.08,667.65,680.69Z" transform="translate(-273.22 -75.33)"/><path class="cls-4" d="M2562.74,550.74v1072c0,18.75-13.54,34-30.23,34H985.91c-16.69,0-30.23-15.22-30.23-34V550.74c0-18.77,13.54-34,30.23-34h1546.6C2549.2,516.77,2562.74,532,2562.74,550.74Z" transform="translate(-273.22 -75.33)"/><path class="cls-5" d="M2486.29,489.54v86.93h-1726V489.54a32.46,32.46,0,0,1,32.46-32.47H2453.82A32.47,32.47,0,0,1,2486.29,489.54Z" transform="translate(-273.22 -75.33)"/><path class="cls-5" d="M813.09,516.77a15.12,15.12,0,1,1,15.11,15.12A15.1,15.1,0,0,1,813.09,516.77Z" transform="translate(-273.22 -75.33)"/><path class="cls-5" d="M872.65,516.77a15.12,15.12,0,1,1,15.11,15.12A15.1,15.1,0,0,1,872.65,516.77Z" transform="translate(-273.22 -75.33)"/><path class="cls-5" d="M933.71,516.77a15.12,15.12,0,1,1,15.12,15.12A15.11,15.11,0,0,1,933.71,516.77Z" transform="translate(-273.22 -75.33)"/><path class="cls-6" d="M676.1,1333.31s2.3-25.08-25.73-25.08c0,0,8.5,2.3,12.89,6.91,0,0-17.88-10.5-37.33,5.63s-7.37,56.57-13.29,64.25-28.95,9.22-26.13,34,73.11,55.93,68.6,76.47c0,0,27.55-40.5,7.85-59,0,0,9.6,9,10.58,19.8,0,0,2.61-21-10.75-27.71-11.82-5.94-21.5-27.67-20.48-31.55S676.1,1333.31,676.1,1333.31Z" transform="translate(-273.22 -75.33)"/><path class="cls-7" d="M648.51,1453.76s20.94,86.63,41.49,104c12.36,10.41,49.09,34.29,49.09,34.29l-15.28,5.55s-50.95-17.21-62.36-30.62-42.64-80.62-42.64-80.62Z" transform="translate(-273.22 -75.33)"/><path class="cls-8" d="M451.7,1606c.19.33.38.68.58,1,4.58,8,15.09,27.48,26.67,48.84,5.48,10.13,11.21,20.68,16.65,30.6,9.37,17.13,17.9,32.38,22.88,40.44s8.78,14,10.29,16.26h0a3.86,3.86,0,0,1,.49,2.38,124.06,124.06,0,0,0,.33,21.48c7,69.48,53.83,106.71,53.83,106.71l13.93,2.06s-19.71-73-25.52-114.32c-1-7-1.4-12.67-1.06-16.37,1-10.76-.88-26.55-4.5-44.68-6.43-32.23-18.23-71.77-28.48-103.43-.65-2-20.24-72.89-20.24-72.89-16.44,14.37-76.42,20.3-76.42,20.3S431,1569.09,451.7,1606Z" transform="translate(-273.22 -75.33)"/><path class="cls-6" d="M626.6,1893.37H568.46s-1.39-8.86,1.65-15.58c2.91-6.45,7-6.65.53-16.77,3.69,3.81,15.57,5.38,24,4.25,1,1.67,6.64,12.87,10.08,15.34C608.49,1883.34,625.43,1882.37,626.6,1893.37Z" transform="translate(-273.22 -75.33)"/><path class="cls-6" d="M451.7,1606c.19.33.38.68.58,1,4.58,8,29.36,53.74,40.94,75.09-13.41-55.19-4.08-110.39-4.08-110.39Z" transform="translate(-273.22 -75.33)"/><path class="cls-6" d="M668.17,1329.79c.38-1.53-33.21,15.18-34.91,17.07-15.75,17.47-11.26,40.27-2.25,40.49,5.79.14,4.66,9.75,4.66,9.75l64.4-27.24S692.32,1324.64,668.17,1329.79Z" transform="translate(-273.22 -75.33)"/><path class="cls-9" d="M646.53,1440.75s9.8,19.58,8.58,35.46c0,0-11.82,18.66-42.47,23.38C612.64,1499.59,639,1440.74,646.53,1440.75Z" transform="translate(-273.22 -75.33)"/><path class="cls-8" d="M497,1548.69l.19-10.87c-21.66,2.73-74.7-25.89-74.7-25.89s-22.66,15.08-25.76,58.13c-1.52,21-11.1,109.87-12.16,136.41-.39,9.62-.51,16.48-.56,19.22v0a3.79,3.79,0,0,1-.93,2.24,123.81,123.81,0,0,0-11.73,18C338.33,1807.46,355.61,1891,355.61,1891l7.68-2s27.95-86.64,46.22-124.12c3.1-6.36,5.92-11.3,8.28-14.16,6.87-8.35,14.11-22.52,21.25-39.57C452.53,1679,497,1548.69,497,1548.69Z" transform="translate(-273.22 -75.33)"/><path class="cls-6" d="M401.85,1893.37H343.71s-1.39-8.86,1.64-15.58c2.91-6.45,7.47-9.38,6.38-17.19,3.69,3.81,9.71,8.07,18.12,6.94,1,1.67,6.65,10.6,10.09,13.07C383.74,1883.34,400.68,1882.37,401.85,1893.37Z" transform="translate(-273.22 -75.33)"/><path class="cls-5" d="M615.86,1512.07c-8.1,1.34,1.33,7.54-9.82,8.71-15.87,1.67-32.25,2.81-40.83,6.11-3.13,1.2-5.22,2.69-5.88,4.59-3.72,10.77-27.28,29.29-27.28,29.29C427,1556.16,420.21,1511,420.21,1511c68.2-63.81,126.21-98.59,174.16-102.9,11.67-1,27.4.36,34.78,3.53,16.77,7.19,26,29.08,26,29.08S646.66,1507,615.86,1512.07Z" transform="translate(-273.22 -75.33)"/><path class="cls-9" d="M599.25,1520.78c-15.28,1.67-31.07,2.81-39.34,6.11-3.37-50.49,20.45-88.47,20.45-88.47S595.91,1501.67,599.25,1520.78Z" transform="translate(-273.22 -75.33)"/><path class="cls-7" d="M620.65,1415.83c2.89,9.05,12.53,34.85,25.88,24.92-.45-1.92,2.35-7.52,5.66-13.21,4.23-7.26,9.26-14.69,9.26-14.69l-21.76-19.06-1.29-1.14A55.46,55.46,0,0,1,622.21,1411,4.35,4.35,0,0,0,620.65,1415.83Z" transform="translate(-273.22 -75.33)"/><path class="cls-10" d="M661.45,1412.86s-5,7.41-9.26,14.68c-13.52-8.33-13.54-25.08-12.49-33.75Z" transform="translate(-273.22 -75.33)"/><path class="cls-7" d="M662.05,1422.41s-32.83-18.27-21.14-38.54,15.33-36.29,36.79-25.48,21,20.87,18.78,28.59S670.9,1426.64,662.05,1422.41Z" transform="translate(-273.22 -75.33)"/><path class="cls-6" d="M702,1375.15c-1.51-9-6.08-9.86-9.27-9.26-12.12-20.05-31.94-12.23-31.94-12.23a44.66,44.66,0,0,1-25.88,15.55s3.81,7.09,19.51,11.48c4.8,1.34,10.24.53,15.49-1.24a87.33,87.33,0,0,1-22.28,8.4c20.69,1.9,40.37-17,42.41-19,1,2.93,2.63,9.07,1.63,13.55-1.36,6.1-6.77,17.14-3.47,18.57C688.23,1400.93,704.28,1388.65,702,1375.15Z" transform="translate(-273.22 -75.33)"/><rect class="cls-5" x="754.73" y="1691.59" width="272.59" height="71.49" transform="translate(573.84 -291.11) rotate(25.99)"/><path class="cls-5" d="M676.21,1713.18a81,81,0,0,1-43.84-55.75,18.41,18.41,0,1,1,36-7.9,44.59,44.59,0,1,0,30.95-52.3,18.41,18.41,0,1,1-10.43-35.31,81.41,81.41,0,1,1-12.64,151.26Z" transform="translate(-273.22 -75.33)"/><path class="cls-5" d="M1022.84,1882.17a81.41,81.41,0,1,1,111.38-103.12,18.41,18.41,0,1,1-34.24,13.53,44.59,44.59,0,1,0-22.14,56.6,18.41,18.41,0,0,1,15.93,33.2A81,81,0,0,1,1022.84,1882.17Z" transform="translate(-273.22 -75.33)"/><rect class="cls-9" x="870.17" y="1641.39" width="22.46" height="158.58" rx="7.49" transform="translate(-1324.72 1683.58) rotate(-64.01)"/><path class="cls-7" d="M643.25,1647.9s.71,6.12,3.3,9.28,10.11,10.81,10.24,15.28c0,0-.38,2-2,1.63s-7.22-5.92-10.09-5.52c0,0,1.53,9,3,11.5s4.32,12,3.41,14.22-16.14-10.51-20.75-16.71-.07-31.36-.07-31.36Z" transform="translate(-273.22 -75.33)"/><path class="cls-7" d="M612.44,1429.87s-38.44-2.1-45.27,22,12.81,120.48,17.05,130.42c7.71,18.11,45.23,69.77,45.23,69.77l13.8-4.2s-25-78.93-30.61-86.74C603.88,1548.9,624,1440.37,612.44,1429.87Z" transform="translate(-273.22 -75.33)"/><path class="cls-5" d="M559.59,1484.19c.1.56,36.38,6.67,59.07-4.85,0,0,19-59.38-8.14-56.54s-43.13,11.37-43.81,24.34S559.59,1484.19,559.59,1484.19Z" transform="translate(-273.22 -75.33)"/><path class="cls-7" d="M720.21,1553.38c-1.82.09-5.17.69-6.37,1.61-2.1,1.62-4.46,4.43.24,6.77,7,3.51,21.14,2,20.59-.16C732.93,1554.94,730.39,1552.91,720.21,1553.38Z" transform="translate(-273.22 -75.33)"/><path class="cls-7" d="M1168.22,608a6.57,6.57,0,0,0-1.17,7l0,0c1.7,4.69,7.3,9.93,13.81,15.16.83.67,1.57,1.28,2.22,1.84l.5.45.38.35c6.07,5.59,3.79,6.88,14.69,18.23,12.44,12.94,21,13.18,23.44,12,2.06-1-2.13-7.87-6.77-15.59l-.67-1.12-1.85-3.1c-5.43-9.28-4-13.64-2.75-27.45,1-11.23,17.47-62.73,17.47-62.73L1203.7,549s-7.17,41-15.08,47.33c-4.23,3.36-9,3.4-13,5.9q-.43.25-.84.54A31.31,31.31,0,0,0,1168.22,608Z" transform="translate(-273.22 -75.33)"/><path class="cls-6" d="M1168.22,608a6.57,6.57,0,0,0-1.17,7l0,0c2.08,4.69,7.54,9.9,13.83,15.11.83.68,1.55,1.31,2.2,1.89l.5.45.38.35c6.07,5.59,3.79,6.88,14.69,18.23,12.44,12.94,21,13.18,23.44,12,2.06-1-2.13-7.87-6.77-15.59a53,53,0,0,1-22.17-16.33c-7.49-9.56-12.48-21.84-17.58-28.95q-.43.25-.84.54A31.31,31.31,0,0,0,1168.22,608Z" transform="translate(-273.22 -75.33)"/><path class="cls-7" d="M1360.41,593.09c1.47,7.36,12,6.13,23.68,3.27s8.93.54,25.6-1.31,21.73-8.06,22.24-10.54c.45-2.2-7.79-3-16.63-4-1.11-.12-2.22-.26-3.34-.4-10-1.25-17.28-7.69-26.35-13-8.58-5-21.39-25.42-21.39-25.42l-22.87,1.81s12,18.23,16.64,26.15c2.73,4.66,2.58,10.83,2.24,15.59A29.7,29.7,0,0,0,1360.41,593.09Z" transform="translate(-273.22 -75.33)"/><path class="cls-6" d="M1384.09,596.36c11.71-2.87,8.93.54,25.6-1.31s21.73-8.06,22.24-10.54c.45-2.2-7.79-3-16.63-4l-.08.17a47.06,47.06,0,0,1-23.88,7.43c-11.31.27-23.29-3-31.11-2.84a29.7,29.7,0,0,0,.18,7.82C1361.88,600.45,1372.37,599.22,1384.09,596.36Z" transform="translate(-273.22 -75.33)"/><path class="cls-6" d="M1272.77,446.87l-21.37,57.52-27.91,75.11a45.34,45.34,0,0,1-14.83-1.35c-6.68-1.94-14.34-7-14.34-7s7.75-80.65,22.21-126.95c3.7-11.88,7.85-21.49,12.43-26.9C1251.38,390.83,1272.77,446.87,1272.77,446.87Z" transform="translate(-273.22 -75.33)"/><path class="cls-8" d="M1251,355.51c-14-4.52-54,1.28-94.08,9.14l-8.4-13.86L1061.89,344s-28.6,63.42-12.94,103.84c2.3,5.94,6.87,9.74,14.67,9.87h1.26l68.34,0c43.1,0,91.22-29.63,97.44-30.87,10.19-2,14.26,18.34,24.45,39.73s95.77,94.75,95.77,94.75,13.16.13,18.59-1.9c5.84-2.2,8-5,8-5S1282.62,365.7,1251,355.51Z" transform="translate(-273.22 -75.33)"/><path class="cls-7" d="M1124.71,207.59c.87,3-13.55,8.67-24.57,6.6-10.36-1.93-22-14.06-19.57-15.2,4-1.88,6.63-6.57,4.46-31.9l2,.23,33.15,3.78s.1,10.33.87,20C1121.66,199.22,1123.3,202.61,1124.71,207.59Z" transform="translate(-273.22 -75.33)"/><path class="cls-10" d="M1120.15,171.1s.1,10.33.87,20c-18.3,1-29.31-14.88-34-23.78Z" transform="translate(-273.22 -75.33)"/><path class="cls-7" d="M1127,179.76s-43.12,4.25-45.36-22.65-9.3-44.46,18.14-48.31,33.64,6,36.57,14.76S1138.15,178,1127,179.76Z" transform="translate(-273.22 -75.33)"/><path class="cls-6" d="M1114.25,111.57s8.12,1.81,15.32,12.29c3.94,5.73,8.5,20.18,7.72,26.58,0,0,7.55-30.41-3.46-41.73C1122.16,96.72,1114.25,111.57,1114.25,111.57Z" transform="translate(-273.22 -75.33)"/><path class="cls-5" d="M1047.06,295.94c.77,3.27,1.43,6.27,2,9.05.87,4.47,1.48,8.33,1.9,11.73,1.32,10.61.92,16.89,1.81,23.77a59.28,59.28,0,0,0,3.23,12.93c1.78,4.93,48.64,9.32,75.3,7.55,8.47-.55,14.92-1.74,17.21-3.72,9.51-8.26,8.56,9.91,9.87-77,.63-42.4-36-80.16-36-80.16s-2.92,18.11-39.23-3.45c-1.29-.75-15.59,20.42-29.35,46.49C1038.62,271.92,1042.78,278,1047.06,295.94Z" transform="translate(-273.22 -75.33)"/><path class="cls-8" d="M1251.4,504.39l-27.91,75.11a45.34,45.34,0,0,1-14.83-1.35c-6.68-1.94-14.34-7-14.34-7s7.75-80.65,22.21-126.95Z" transform="translate(-273.22 -75.33)"/><path class="cls-5" d="M1122.37,200.06s37.36,6.34,41.75,22.42,34.69,106,34.69,106-23.48,8-32.26-.76-30.52-81.4-30.52-81.4Z" transform="translate(-273.22 -75.33)"/><path class="cls-11" d="M1117,163.9s1.81,4.42,6.58,4.42,6.07-.71,7-1.73a15.08,15.08,0,0,0,1.8-3A40.5,40.5,0,0,0,1117,163.9Z" transform="translate(-273.22 -75.33)"/><path class="cls-9" d="M1050.93,316.72c1.32,10.61.92,16.89,1.81,23.77,33.93.1,79.28-26.2,79.28-26.2Z" transform="translate(-273.22 -75.33)"/><path class="cls-9" d="M1132,292s-52.85-1.57-61.75-31.61c-9.79-33-20.75,13.57-20.75,13.57l5.83,29.72h58Z" transform="translate(-273.22 -75.33)"/><path class="cls-4" d="M1224.14,210.54l-2.86-7.07a20.06,20.06,0,0,0-18.6-12.55H1150V367.05h217.92V224.35H1244.6A22.06,22.06,0,0,1,1224.14,210.54Z" transform="translate(-273.22 -75.33)"/><path class="cls-11" d="M1182.87,298v-12.7l44.53-19.5v13l-31.09,12.79,31.09,12.79v13.15Z" transform="translate(-273.22 -75.33)"/><path class="cls-11" d="M1273.68,250.65h11.87l-40.76,85.19h-11.87Z" transform="translate(-273.22 -75.33)"/><path class="cls-11" d="M1335.05,285.33V298l-44.53,19.5v-13l31.1-12.79L1290.52,279V265.83Z" transform="translate(-273.22 -75.33)"/><path class="cls-7" d="M1132,299l3.82-6a30.53,30.53,0,0,0,7.27-4c5.05-3.55,4.38-8.85,6.9-8.29l0,11.67-.28,0c10.83,2.89,23.5-.26,23.75,2.44.7,7.42-5,10.76-9.85,13.08-3.68,1.78-7.86,4.45-14.5,2.38-4.86-1.52-12.51-3.05-12.51-3.05Z" transform="translate(-273.22 -75.33)"/><path class="cls-5" d="M1083.14,196.63s-34.31,2.25-42.88,15.62-19.21,81.31-14.75,104.63,114.3-4.46,114.3-4.46l-3.5-20.24s-63.4.37-67-7.89C1064.5,273.32,1083.14,196.63,1083.14,196.63Z" transform="translate(-273.22 -75.33)"/><path class="cls-7" d="M1248.72,224.27c-.3.89,5.16,9.88,13,8.32,4.85-1,11.17-11.43,5.62-13.74C1258,215,1249.5,221.9,1248.72,224.27Z" transform="translate(-273.22 -75.33)"/><path class="cls-12" d="M1118.29,118.11c3.24-3,4.45-8,4-13,.07-.35.1-.55.1-.55s-.13-.17-.19-.25c-.76-5.79-3.81-11.26-8.6-12.85-5.76-1.92-11.81,1.17-17.69,0-7-1.39-12.23-8.34-18.33-12.78s-15.7-5.23-18.46,2.45c-.95,2.66-.79,5.74-1.46,8.53-1.93,8.13-10.31,11.52-17.34,10.06s-13.26-6.34-19.81-9.86-14.4-5.62-20.51-1.5c-10.83,7.28-9.28,28.4-19.22,37.28-7.81,7-19.47,3.55-28.17,8.85-9.05,5.53-11.42,23.71-2.5,30.17,8.1,5.86,18.25-.94,27.5.82,16.07,3.05,24.36,30.28,40.56,31.13,12.05.64,22-14.35,33.92-11.5,7.14,1.71,13,9.71,20.26,9.32,5.87-.31,10.5-6.44,12-13.2s.66-14-.41-21c-.67-4.46-1.25-9.62,1-13a74,74,0,0,0,7.45-2c13.81-4.38,21.57-16.69,25.72-26.62h.37l-.36,0C1118.18,118.41,1118.23,118.26,1118.29,118.11Z" transform="translate(-273.22 -75.33)"/><path class="cls-12" d="M1118.47,118.58l1.6.11A14.17,14.17,0,0,0,1118.47,118.58Z" transform="translate(-273.22 -75.33)"/><rect class="cls-6" x="1511.94" y="575.77" width="270.54" height="1.31" transform="translate(89.82 1682.8) rotate(-61.91)"/><rect class="cls-6" x="2105.09" y="428.99" width="1.31" height="210.67" transform="translate(-75.08 1498.56) rotate(-42.83)"/><path class="cls-2" d="M2266.35,656.68a57.3,57.3,0,0,1-10.69,42,54.59,54.59,0,0,1-36.54,21.86l-640.28,88c-32.68,4.49-62.9-17.16-67.15-48.11a55.16,55.16,0,0,1,12-42.14,61.49,61.49,0,0,1,39.69-22.29l640.28-88C2233.89,603.81,2262.1,625.73,2266.35,656.68Z" transform="translate(-273.22 -75.33)"/><path class="cls-5" d="M2266.35,656.68a57.3,57.3,0,0,1-10.69,42,54.59,54.59,0,0,1-36.54,21.86l-115.86,15.92L2087.8,623.88,2203.66,608C2233.89,603.81,2262.1,625.73,2266.35,656.68Z" transform="translate(-273.22 -75.33)"/><path class="cls-11" d="M2195.83,687.21a28.42,28.42,0,0,1-4.34.27,28.95,28.95,0,0,1-19.89-49.65h0a28.95,28.95,0,1,1,24.23,49.38Zm-20.9-46a24.18,24.18,0,1,0,34.19.4,24.2,24.2,0,0,0-34.19-.4Z" transform="translate(-273.22 -75.33)"/><rect class="cls-11" x="2156.31" y="671.15" width="4.77" height="39.5" transform="translate(870.93 -1411.25) rotate(45.66)"/><path class="cls-11" d="M2134.75,714.3h0a4.26,4.26,0,0,1,.07-6L2151.46,692a4.26,4.26,0,0,1,6,.07h0a4.26,4.26,0,0,1-.07,6l-16.64,16.26A4.25,4.25,0,0,1,2134.75,714.3Z" transform="translate(-273.22 -75.33)"/><rect class="cls-5" x="779.1" y="1180.64" width="143.85" height="12.21" rx="2.97"/><path class="cls-6" d="M1122.49,1310.14h-66a4.16,4.16,0,0,1-4.16-4.16h0a4.17,4.17,0,0,1,4.16-4.17h66a4.17,4.17,0,0,1,4.16,4.17h0A4.16,4.16,0,0,1,1122.49,1310.14Z" transform="translate(-273.22 -75.33)"/><rect class="cls-6" x="779.1" y="1209.01" width="124.58" height="8.33" rx="2.28"/><rect class="cls-6" x="915.04" y="1209.01" width="116.34" height="8.33" rx="2.2"/><path class="cls-6" d="M1204.81,1310.14h-66a4.17,4.17,0,0,1-4.17-4.16h0a4.17,4.17,0,0,1,4.17-4.17h66A4.17,4.17,0,0,1,1209,1306h0A4.17,4.17,0,0,1,1204.81,1310.14Z" transform="translate(-273.22 -75.33)"/><rect class="cls-5" x="941.99" y="1180.64" width="143.85" height="12.21" rx="2.97"/><rect class="cls-5" x="779.1" y="1272.53" width="143.85" height="12.2" rx="2.97"/><path class="cls-6" d="M1122.49,1402h-66a4.16,4.16,0,0,1-4.16-4.16h0a4.16,4.16,0,0,1,4.16-4.16h66a4.16,4.16,0,0,1,4.16,4.16h0A4.16,4.16,0,0,1,1122.49,1402Z" transform="translate(-273.22 -75.33)"/><rect class="cls-6" x="779.1" y="1300.91" width="124.58" height="8.33" rx="2.28"/><rect class="cls-6" x="915.04" y="1300.91" width="116.34" height="8.33" rx="2.2"/><path class="cls-6" d="M1204.81,1402h-66a4.17,4.17,0,0,1-4.17-4.16h0a4.17,4.17,0,0,1,4.17-4.16h66a4.17,4.17,0,0,1,4.17,4.16h0A4.17,4.17,0,0,1,1204.81,1402Z" transform="translate(-273.22 -75.33)"/><rect class="cls-5" x="941.99" y="1272.53" width="143.85" height="12.2" rx="2.97"/><polygon class="cls-8" points="1613.22 726.22 1536.82 744 1499.04 812.74 1470.2 656.08 1613.22 726.22"/><rect class="cls-8" x="1817.72" y="800.25" width="13.97" height="80.8" transform="translate(-410.55 1197.36) rotate(-37.15)"/><rect class="cls-2" x="1361.58" y="834.65" width="215.39" height="215.39" rx="8.1"/><path class="cls-9" d="M1662.32,1080.33l41.85-75.46a13.77,13.77,0,0,1,23.14-1.46l24.14,32.93a13.77,13.77,0,0,0,21.26,1.15h0a13.76,13.76,0,0,1,21.71,1.81l26.06,40.22a13.77,13.77,0,0,1-11.56,21.25H1674.36A13.76,13.76,0,0,1,1662.32,1080.33Z" transform="translate(-273.22 -75.33)"/><path class="cls-9" d="M1744.92,969.61a16.46,16.46,0,1,1,16.46,16.46A16.46,16.46,0,0,1,1744.92,969.61Z" transform="translate(-273.22 -75.33)"/><path class="cls-2" d="M2112,1131.18l-186.14,25.39a13.76,13.76,0,0,1-15.5-11.78L1885,958.66a13.77,13.77,0,0,1,11.78-15.51l186.14-25.39a13.78,13.78,0,0,1,15.5,11.78l25.39,186.14A13.77,13.77,0,0,1,2112,1131.18Z" transform="translate(-273.22 -75.33)"/><path class="cls-9" d="M1933.38,1110.07l31.27-80.42a13.76,13.76,0,0,1,22.73-4.57l28.37,29.36a13.77,13.77,0,0,0,21.22-1.73h0a13.77,13.77,0,0,1,21.76-1.14L2090,1087.9a13.77,13.77,0,0,1-8.58,22.62l-133.33,18.18A13.77,13.77,0,0,1,1933.38,1110.07Z" transform="translate(-273.22 -75.33)"/><path class="cls-9" d="M2000.26,989.21a16.46,16.46,0,1,1,18.53,14.08A16.45,16.45,0,0,1,2000.26,989.21Z" transform="translate(-273.22 -75.33)"/><rect class="cls-5" x="1182.9" y="1721.27" width="108.55" height="93.07"/><rect class="cls-8" x="1178.52" y="1717.28" width="116.61" height="7.19"/><rect class="cls-8" x="1182.9" y="1746.45" width="108.55" height="29.56"/><path class="cls-5" d="M1696.74,1889.74H1594.25a6.79,6.79,0,0,1-6.8-6.8v-11.37a6.79,6.79,0,0,1,7.54-6.75l102.5,11.37a6.8,6.8,0,0,1,6,6.75h0A6.79,6.79,0,0,1,1696.74,1889.74Z" transform="translate(-273.22 -75.33)"/><path class="cls-9" d="M3130.38,1898.94,276.7,1898a3.48,3.48,0,0,1-3.48-3.47v-1.79a3.49,3.49,0,0,1,3.48-3.47l2853.68,1a3.5,3.5,0,0,1,3.48,3.48v1.78A3.5,3.5,0,0,1,3130.38,1898.94Z" transform="translate(-273.22 -75.33)"/><path class="cls-6" d="M1517.69,1133.84h-11.81a1.94,1.94,0,0,1,0-3.88h11.73a2,2,0,0,1,2,1.94A1.91,1.91,0,0,1,1517.69,1133.84Zm-23.54,0h-11.73a1.94,1.94,0,0,1,0-3.88h11.73a1.94,1.94,0,0,1,0,3.88Zm-23.46,0H1459a1.94,1.94,0,0,1,0-3.88h11.74a1.94,1.94,0,1,1,0,3.88Zm-23.47,0h-11.73a1.94,1.94,0,0,1,0-3.88h11.73a1.94,1.94,0,1,1,0,3.88Zm-23.46,0H1412a1.94,1.94,0,1,1,0-3.88h11.73a1.94,1.94,0,1,1,0,3.88Zm-23.47,0h-11.73a1.94,1.94,0,0,1,0-3.88h11.73a1.94,1.94,0,1,1,0,3.88Zm-23.46,0H1365.1a1.94,1.94,0,1,1,0-3.88h11.73a1.94,1.94,0,1,1,0,3.88Zm-23.46,0h-11.74a1.94,1.94,0,0,1,0-3.88h11.74a1.94,1.94,0,1,1,0,3.88Zm-23.47,0h-11.73a1.94,1.94,0,0,1,0-3.88h11.73a1.94,1.94,0,0,1,0,3.88Zm-23.46,0h-11.73a1.94,1.94,0,1,1,0-3.88h11.73a1.94,1.94,0,1,1,0,3.88Zm-23.47,0h-11.73a1.94,1.94,0,0,1,0-3.88H1283a1.94,1.94,0,1,1,0,3.88Zm-23.46,0h-11.73a1.94,1.94,0,0,1,0-3.88h11.73a1.94,1.94,0,1,1,0,3.88Zm-23.46,0h-11.74a1.94,1.94,0,0,1,0-3.88h11.74a1.94,1.94,0,1,1,0,3.88Zm-23.47,0h-11.73a1.94,1.94,0,1,1,0-3.88h11.73a1.94,1.94,0,1,1,0,3.88Zm-23.46,0h-11.73a1.94,1.94,0,1,1,0-3.88h11.73a1.94,1.94,0,1,1,0,3.88Zm-23.47,0h-11.73a1.94,1.94,0,0,1,0-3.88h11.73a1.94,1.94,0,1,1,0,3.88Zm-23.46,0h-11.73a1.94,1.94,0,0,1,0-3.88h11.73a1.94,1.94,0,1,1,0,3.88Zm-23.46,0h-10.46c-.47,0-.94,0-1.4,0a1.94,1.94,0,0,1,.25-3.88c.38,0,.76,0,1.15,0h10.46a1.94,1.94,0,1,1,0,3.88Zm410-3.41a1.94,1.94,0,0,1-1.1-3.55,17.84,17.84,0,0,0,6.56-8.11,1.94,1.94,0,1,1,3.6,1.45,21.72,21.72,0,0,1-8,9.87A1.94,1.94,0,0,1,1528.74,1130.43Zm-432.56-.7a1.93,1.93,0,0,1-1.18-.4,21.72,21.72,0,0,1-7.37-10.34,1.94,1.94,0,1,1,3.68-1.23,17.8,17.8,0,0,0,6.06,8.49,1.94,1.94,0,0,1-1.19,3.48Zm441.25-19.84a1.94,1.94,0,0,1-2-1.94v-11.74a1.95,1.95,0,0,1,3.89,0V1108A1.94,1.94,0,0,1,1537.43,1109.89Zm-449-1.19a2,2,0,0,1-2-2V1095a1.95,1.95,0,0,1,3.89,0v11.73A1.94,1.94,0,0,1,1088.46,1108.7Zm449-22.28a1.94,1.94,0,0,1-2-1.94v-11.73a1.95,1.95,0,0,1,3.89,0v11.73A1.94,1.94,0,0,1,1537.43,1086.42Zm-449-1.19a1.94,1.94,0,0,1-2-1.94v-11.73a1.95,1.95,0,1,1,3.89,0v11.73A1.94,1.94,0,0,1,1088.46,1085.23Zm449-22.27a1.94,1.94,0,0,1-2-1.94v-11.73a1.95,1.95,0,1,1,3.89,0V1061A1.94,1.94,0,0,1,1537.43,1063Zm-449-1.19a2,2,0,0,1-2-2v-11.73a1.95,1.95,0,0,1,3.89,0v11.73A1.94,1.94,0,0,1,1088.46,1061.77Zm449-22.27a2,2,0,0,1-2-2v-11.73a1.95,1.95,0,0,1,3.89,0v11.73A1.94,1.94,0,0,1,1537.43,1039.5Zm-449-1.2a1.94,1.94,0,0,1-2-1.94v-11.73a1.95,1.95,0,0,1,3.89,0v11.73A1.94,1.94,0,0,1,1088.46,1038.3Zm449-22.27a1.94,1.94,0,0,1-2-1.94v-11.73a1.95,1.95,0,0,1,3.89,0v11.73A1.94,1.94,0,0,1,1537.43,1016Zm-449-1.19a1.94,1.94,0,0,1-2-1.94v-11.73a1.95,1.95,0,1,1,3.89,0v11.73A1.94,1.94,0,0,1,1088.46,1014.84Zm449-22.27a1.94,1.94,0,0,1-2-1.94V978.89a1.95,1.95,0,0,1,3.89,0v11.74A1.94,1.94,0,0,1,1537.43,992.57Zm-449-1.19a2,2,0,0,1-2-2V977.7a1.95,1.95,0,0,1,3.89,0v11.73A1.94,1.94,0,0,1,1088.46,991.38Zm449-22.28a1.94,1.94,0,0,1-2-1.94V955.43a1.95,1.95,0,0,1,3.89,0v11.73A1.94,1.94,0,0,1,1537.43,969.1Zm-449-1.19a1.94,1.94,0,0,1-2-1.94V954.24a1.95,1.95,0,1,1,3.89,0V966A1.94,1.94,0,0,1,1088.46,967.91Zm449-22.27a1.94,1.94,0,0,1-2-1.94V932a1.95,1.95,0,1,1,3.89,0V943.7A1.94,1.94,0,0,1,1537.43,945.64Zm-449-1.19a2,2,0,0,1-2-2V930.77a1.95,1.95,0,0,1,3.89,0V942.5A1.94,1.94,0,0,1,1088.46,944.45Zm449-22.27a2,2,0,0,1-2-1.95V908.5a1.95,1.95,0,0,1,3.89,0v11.73A1.94,1.94,0,0,1,1537.43,922.18Zm-449-1.2a1.94,1.94,0,0,1-2-1.94V907.31a1.95,1.95,0,0,1,3.89,0V919A1.94,1.94,0,0,1,1088.46,921Zm449-22.27a1.94,1.94,0,0,1-2-1.94v-5.29a18,18,0,0,0-.92-5.71,1.94,1.94,0,0,1,3.68-1.24,21.81,21.81,0,0,1,1.13,7v5.29A1.94,1.94,0,0,1,1537.43,898.71Zm-449-1.19a1.94,1.94,0,0,1-2-1.94v-4.1a21.74,21.74,0,0,1,1.59-8.18,1.94,1.94,0,1,1,3.6,1.46,17.9,17.9,0,0,0-1.3,6.72v4.1A1.94,1.94,0,0,1,1088.46,897.52Zm441.21-19.83a1.93,1.93,0,0,1-1.18-.4,17.8,17.8,0,0,0-9.76-3.65,1.94,1.94,0,0,1,.24-3.88,21.59,21.59,0,0,1,11.88,4.45,1.94,1.94,0,0,1-1.18,3.48ZM1097.18,877a1.95,1.95,0,0,1-1.09-3.56,21.73,21.73,0,0,1,12.13-3.72h0a1.94,1.94,0,1,1,0,3.88,17.83,17.83,0,0,0-10,3.06A1.9,1.9,0,0,1,1097.18,877Zm409.94-3.4h-11.74a1.94,1.94,0,1,1,0-3.88h11.74a1.94,1.94,0,1,1,0,3.88Zm-23.47,0h-11.73a1.94,1.94,0,1,1,0-3.88h11.73a1.94,1.94,0,0,1,0,3.88Zm-23.46,0h-11.73a1.94,1.94,0,1,1,0-3.88h11.73a1.94,1.94,0,1,1,0,3.88Zm-23.47,0H1425a1.94,1.94,0,1,1,0-3.88h11.73a1.94,1.94,0,1,1,0,3.88Zm-23.46,0h-11.73a1.94,1.94,0,1,1,0-3.88h11.73a1.94,1.94,0,1,1,0,3.88Zm-23.46,0h-11.74a1.94,1.94,0,0,1,0-3.88h11.74a1.94,1.94,0,1,1,0,3.88Zm-23.47,0H1354.6a1.94,1.94,0,1,1,0-3.88h11.73a1.94,1.94,0,1,1,0,3.88Zm-23.46,0h-11.73a1.94,1.94,0,1,1,0-3.88h11.73a1.94,1.94,0,1,1,0,3.88Zm-23.47,0h-11.73a1.94,1.94,0,0,1,0-3.88h11.73a1.94,1.94,0,1,1,0,3.88Zm-23.46,0h-11.73a1.94,1.94,0,0,1,0-3.88h11.73a1.94,1.94,0,1,1,0,3.88Zm-23.46,0h-11.74a1.94,1.94,0,0,1,0-3.88h11.74a1.94,1.94,0,1,1,0,3.88Zm-23.47,0h-11.73a1.94,1.94,0,0,1,0-3.88H1249a1.94,1.94,0,1,1,0,3.88Zm-23.46,0h-11.73a1.94,1.94,0,1,1,0-3.88h11.73a1.94,1.94,0,1,1,0,3.88Zm-23.47,0h-11.73a1.94,1.94,0,1,1,0-3.88h11.73a1.94,1.94,0,1,1,0,3.88Zm-23.46,0h-11.73a1.94,1.94,0,0,1,0-3.88h11.73a1.94,1.94,0,1,1,0,3.88Zm-23.46,0h-11.74a1.94,1.94,0,0,1,0-3.88h11.74a1.94,1.94,0,0,1,0,3.88Zm-23.47,0H1120a1.94,1.94,0,0,1,0-3.88h11.73a1.94,1.94,0,1,1,0,3.88Z" transform="translate(-273.22 -75.33)"/><path class="cls-6" d="M2184.6,1459.44h-10.47a1.72,1.72,0,0,1,0-3.44h10.4a1.75,1.75,0,0,1,1.76,1.72A1.69,1.69,0,0,1,2184.6,1459.44Zm-20.86,0h-10.39a1.72,1.72,0,1,1,0-3.44h10.39a1.72,1.72,0,1,1,0,3.44Zm-20.79,0h-10.39a1.72,1.72,0,1,1,0-3.44H2143a1.72,1.72,0,1,1,0,3.44Zm-20.78,0h-10.39a1.72,1.72,0,0,1,0-3.44h10.39a1.72,1.72,0,0,1,0,3.44Zm-20.79,0H2091a1.72,1.72,0,1,1,0-3.44h10.39a1.72,1.72,0,0,1,0,3.44Zm-20.78,0h-10.4a1.72,1.72,0,1,1,0-3.44h10.4a1.72,1.72,0,1,1,0,3.44Zm-20.79,0h-10.39a1.72,1.72,0,0,1,0-3.44h10.39a1.72,1.72,0,1,1,0,3.44Zm-20.79,0h-10.39a1.72,1.72,0,1,1,0-3.44H2039a1.72,1.72,0,1,1,0,3.44Zm-20.78,0h-10.39a1.72,1.72,0,1,1,0-3.44h10.39a1.72,1.72,0,0,1,0,3.44Zm-20.79,0H1987a1.72,1.72,0,1,1,.17-3.44h10.3a1.72,1.72,0,0,1,0,3.44Zm193.88-6.59h-.06a1.72,1.72,0,0,1-1.67-1.77v-10.34a1.72,1.72,0,0,1,3.44,0v10.45A1.71,1.71,0,0,1,2191.33,1452.85Zm-210.72-.27a1.72,1.72,0,0,1-1.72-1.72v-10.4a1.72,1.72,0,0,1,3.44,0v10.4A1.72,1.72,0,0,1,1980.61,1452.58Zm210.72-20.51a1.72,1.72,0,0,1-1.72-1.72V1420a1.72,1.72,0,0,1,3.44,0v10.39A1.72,1.72,0,0,1,2191.33,1432.07Zm-210.72-.28a1.72,1.72,0,0,1-1.72-1.72v-10.39a1.72,1.72,0,0,1,3.44,0v10.39A1.72,1.72,0,0,1,1980.61,1431.79Zm210.72-20.51a1.72,1.72,0,0,1-1.72-1.72v-10.39a1.72,1.72,0,0,1,3.44,0v10.39A1.72,1.72,0,0,1,2191.33,1411.28Zm-210.72-.27a1.72,1.72,0,0,1-1.72-1.73v-10.13c0-.11,0-.22,0-.33a1.69,1.69,0,0,1,1.79-1.65,1.72,1.72,0,0,1,1.65,1.79v10.32A1.72,1.72,0,0,1,1980.61,1411Zm204.23-16.94h-10.39a1.72,1.72,0,1,1,0-3.44h10.47a1.72,1.72,0,0,1-.08,3.44Zm-20.78,0h-10.4a1.72,1.72,0,1,1,0-3.44h10.4a1.72,1.72,0,0,1,0,3.44Zm-20.79,0h-10.39a1.72,1.72,0,0,1,0-3.44h10.39a1.72,1.72,0,0,1,0,3.44Zm-20.78,0h-10.4a1.72,1.72,0,0,1,0-3.44h10.4a1.72,1.72,0,0,1,0,3.44Zm-20.79,0h-10.39a1.72,1.72,0,1,1,0-3.44h10.39a1.72,1.72,0,0,1,0,3.44Zm-20.79,0h-10.39a1.72,1.72,0,1,1,0-3.44h10.39a1.72,1.72,0,0,1,0,3.44Zm-20.78,0h-10.4a1.72,1.72,0,1,1,0-3.44h10.4a1.72,1.72,0,0,1,0,3.44Zm-20.79,0H2029a1.72,1.72,0,0,1,0-3.44h10.39a1.72,1.72,0,1,1,0,3.44Zm-20.78,0h-10.4a1.72,1.72,0,0,1,0-3.44h10.4a1.72,1.72,0,1,1,0,3.44Zm-20.79,0h-10.35a1.74,1.74,0,0,1-1.74-1.72,1.7,1.7,0,0,1,1.7-1.72h10.39a1.72,1.72,0,1,1,0,3.44Z" transform="translate(-273.22 -75.33)"/><path class="cls-6" d="M1442.26,839.21h-11.57a1.94,1.94,0,1,1,0-3.88h11.5a2,2,0,0,1,2,1.94A1.92,1.92,0,0,1,1442.26,839.21Zm-23.07,0h-11.5a1.94,1.94,0,1,1,0-3.88h11.5a1.94,1.94,0,1,1,0,3.88Zm-23,0h-11.5a1.94,1.94,0,1,1,0-3.88h11.5a1.94,1.94,0,1,1,0,3.88Zm-23,0h-11.5a1.94,1.94,0,1,1,0-3.88h11.5a1.94,1.94,0,1,1,0,3.88Zm-23,0h-11.5a1.94,1.94,0,0,1,0-3.88h11.5a1.94,1.94,0,1,1,0,3.88Zm-23,0h-11.5a1.94,1.94,0,0,1,0-3.88h11.5a1.94,1.94,0,1,1,0,3.88Zm-23,0h-11.5a1.94,1.94,0,0,1,0-3.88h11.5a1.94,1.94,0,0,1,0,3.88ZM1281.39,838a1.93,1.93,0,0,1-1-.25,11.51,11.51,0,0,1-5.83-10v-1.41a1.94,1.94,0,1,1,3.88,0v1.41a7.63,7.63,0,0,0,3.86,6.62,1.94,1.94,0,0,1-1,3.63Zm169.74-5a2,2,0,0,1-.68-.12,2,2,0,0,1-1.14-2.5,7.44,7.44,0,0,0,.49-2.68v-8.07a1.94,1.94,0,0,1,3.88,0v8.07a11.42,11.42,0,0,1-.73,4A1.94,1.94,0,0,1,1451.13,833Zm-174.58-16.27a1.94,1.94,0,0,1-1.94-1.94V803.3a1.94,1.94,0,0,1,3.88,0v11.51A1.94,1.94,0,0,1,1276.55,816.75Zm175.19-6.65a1.94,1.94,0,0,1-1.94-2v-11.5a1.94,1.94,0,0,1,3.88,0v11.5A1.94,1.94,0,0,1,1451.74,810.1Zm-175.19-16.35a1.94,1.94,0,0,1-1.94-2V780.3a1.94,1.94,0,0,1,3.88,0v11.5A1.94,1.94,0,0,1,1276.55,793.75Zm175.19-6.65a1.94,1.94,0,0,1-1.94-2v-11.5a1.94,1.94,0,0,1,3.88,0v11.5A1.94,1.94,0,0,1,1451.74,787.1Zm-175.19-16.35a1.94,1.94,0,0,1-1.94-2V757.3a1.94,1.94,0,0,1,3.88,0v11.5A1.94,1.94,0,0,1,1276.55,770.75Zm175.19-6.66a1.94,1.94,0,0,1-1.94-1.94v-11.5a1.94,1.94,0,0,1,3.88,0v11.5A1.94,1.94,0,0,1,1451.74,764.09Zm-175.19-16.35a1.94,1.94,0,0,1-1.94-1.94V734.3a1.94,1.94,0,0,1,3.88,0v11.5A1.94,1.94,0,0,1,1276.55,747.74Zm175.19-6.65a1.94,1.94,0,0,1-1.94-1.94v-11.5a1.94,1.94,0,0,1,3.88,0v11.5A1.94,1.94,0,0,1,1451.74,741.09Zm-175.19-16.35a1.94,1.94,0,0,1-1.94-1.94V711.3a1.94,1.94,0,0,1,3.88,0v11.5A1.94,1.94,0,0,1,1276.55,724.74Zm175.19-6.65a1.94,1.94,0,0,1-1.94-1.94v-11.5a1.94,1.94,0,0,1,3.88,0v11.5A1.94,1.94,0,0,1,1451.74,718.09Zm-175.19-16.35a1.94,1.94,0,0,1-1.94-1.94v-8a11.44,11.44,0,0,1,.75-4.09,1.94,1.94,0,0,1,3.63,1.39,7.52,7.52,0,0,0-.5,2.7v8A1.94,1.94,0,0,1,1276.55,701.74Zm175.19-6.65a1.94,1.94,0,0,1-1.94-1.94v-1.38a7.64,7.64,0,0,0-3.89-6.64,1.94,1.94,0,1,1,1.9-3.38,11.5,11.5,0,0,1,5.87,10v1.38A1.94,1.94,0,0,1,1451.74,695.09Zm-16.17-10.93h-11.5a1.94,1.94,0,1,1,0-3.88h11.5a1.94,1.94,0,1,1,0,3.88Zm-23,0h-11.5a1.94,1.94,0,1,1,0-3.88h11.5a1.94,1.94,0,0,1,0,3.88Zm-23,0h-11.5a1.94,1.94,0,1,1,0-3.88h11.5a1.94,1.94,0,0,1,0,3.88Zm-23,0h-11.5a1.94,1.94,0,1,1,0-3.88h11.5a1.94,1.94,0,0,1,0,3.88Zm-23,0h-11.5a1.94,1.94,0,1,1,0-3.88h11.5a1.94,1.94,0,0,1,0,3.88Zm-23,0h-11.5a1.94,1.94,0,1,1,0-3.88h11.5a1.94,1.94,0,0,1,0,3.88Zm-23,0H1286.1a2,2,0,0,1-2-1.94,1.93,1.93,0,0,1,1.93-1.94h11.5a1.94,1.94,0,0,1,0,3.88Z" transform="translate(-273.22 -75.33)"/><path class="cls-6" d="M2184.6,1555.36h-10.47a1.72,1.72,0,1,1,0-3.44h10.4a1.75,1.75,0,0,1,1.76,1.72A1.69,1.69,0,0,1,2184.6,1555.36Zm-20.86,0h-10.39a1.72,1.72,0,1,1,0-3.44h10.39a1.72,1.72,0,1,1,0,3.44Zm-20.79,0h-10.39a1.72,1.72,0,1,1,0-3.44H2143a1.72,1.72,0,1,1,0,3.44Zm-20.78,0h-10.39a1.72,1.72,0,1,1,0-3.44h10.39a1.72,1.72,0,0,1,0,3.44Zm-20.79,0H2091a1.72,1.72,0,1,1,0-3.44h10.39a1.72,1.72,0,0,1,0,3.44Zm-20.78,0h-10.4a1.72,1.72,0,1,1,0-3.44h10.4a1.72,1.72,0,1,1,0,3.44Zm-20.79,0h-10.39a1.72,1.72,0,0,1,0-3.44h10.39a1.72,1.72,0,1,1,0,3.44Zm-20.79,0h-10.39a1.72,1.72,0,0,1,0-3.44H2039a1.72,1.72,0,1,1,0,3.44Zm-20.78,0h-10.39a1.72,1.72,0,1,1,0-3.44h10.39a1.72,1.72,0,1,1,0,3.44Zm-20.79,0H1987a1.74,1.74,0,0,1-1.64-1.81,1.7,1.7,0,0,1,1.81-1.63h10.3a1.72,1.72,0,1,1,0,3.44Zm193.88-6.59h-.06a1.72,1.72,0,0,1-1.67-1.77v-10.34a1.72,1.72,0,0,1,3.44,0v10.45A1.71,1.71,0,0,1,2191.33,1548.77Zm-210.72-.27a1.72,1.72,0,0,1-1.72-1.72v-10.4a1.72,1.72,0,0,1,3.44,0v10.4A1.72,1.72,0,0,1,1980.61,1548.5ZM2191.33,1528a1.72,1.72,0,0,1-1.72-1.72v-10.39a1.72,1.72,0,0,1,3.44,0v10.39A1.72,1.72,0,0,1,2191.33,1528Zm-210.72-.28a1.72,1.72,0,0,1-1.72-1.72V1515.6a1.72,1.72,0,0,1,3.44,0V1526A1.72,1.72,0,0,1,1980.61,1527.71Zm210.72-20.51a1.72,1.72,0,0,1-1.72-1.72v-10.39a1.72,1.72,0,0,1,3.44,0v10.39A1.72,1.72,0,0,1,2191.33,1507.2Zm-210.72-.28a1.72,1.72,0,0,1-1.72-1.72v-10.13c0-.11,0-.22,0-.33a1.7,1.7,0,0,1,1.79-1.65,1.72,1.72,0,0,1,1.65,1.79v10.32A1.72,1.72,0,0,1,1980.61,1506.92ZM2184.84,1490h-10.39a1.72,1.72,0,1,1,0-3.44h10.47a1.72,1.72,0,0,1-.08,3.44Zm-20.78,0h-10.4a1.72,1.72,0,1,1,0-3.44h10.4a1.72,1.72,0,1,1,0,3.44Zm-20.79,0h-10.39a1.72,1.72,0,0,1,0-3.44h10.39a1.72,1.72,0,0,1,0,3.44Zm-20.78,0h-10.4a1.72,1.72,0,0,1,0-3.44h10.4a1.72,1.72,0,1,1,0,3.44Zm-20.79,0h-10.39a1.72,1.72,0,1,1,0-3.44h10.39a1.72,1.72,0,1,1,0,3.44Zm-20.79,0h-10.39a1.72,1.72,0,1,1,0-3.44h10.39a1.72,1.72,0,1,1,0,3.44Zm-20.78,0h-10.4a1.72,1.72,0,1,1,0-3.44h10.4a1.72,1.72,0,0,1,0,3.44Zm-20.79,0H2029a1.72,1.72,0,0,1,0-3.44h10.39a1.72,1.72,0,0,1,0,3.44Zm-20.78,0h-10.4a1.72,1.72,0,0,1,0-3.44h10.4a1.72,1.72,0,0,1,0,3.44Zm-20.79,0h-10.35a1.74,1.74,0,0,1-1.74-1.72,1.7,1.7,0,0,1,1.7-1.72h10.39a1.72,1.72,0,0,1,0,3.44Z" transform="translate(-273.22 -75.33)"/><path class="cls-6" d="M1364.42,1483.1h-10.37a1.72,1.72,0,0,1,0-3.44h10.3a1.75,1.75,0,0,1,1.76,1.72A1.69,1.69,0,0,1,1364.42,1483.1Zm-20.67,0h-10.31a1.72,1.72,0,0,1,0-3.44h10.31a1.72,1.72,0,0,1,0,3.44Zm-20.61,0h-10.3a1.72,1.72,0,0,1,0-3.44h10.3a1.72,1.72,0,0,1,0,3.44Zm-20.61,0h-10.3a1.72,1.72,0,0,1,0-3.44h10.3a1.72,1.72,0,0,1,0,3.44Zm-20.6,0h-10.31a1.72,1.72,0,0,1,0-3.44h10.31a1.72,1.72,0,0,1,0,3.44Zm-20.61,0H1251a1.72,1.72,0,0,1,0-3.44h10.3a1.72,1.72,0,0,1,0,3.44Zm-20.61,0h-10.3a1.72,1.72,0,0,1,0-3.44h10.3a1.72,1.72,0,0,1,0,3.44Zm-20.6,0H1209.8a1.72,1.72,0,0,1,0-3.44h10.31a1.72,1.72,0,1,1,0,3.44Zm-20.61,0h-10.3a1.72,1.72,0,0,1,0-3.44h10.3a1.72,1.72,0,1,1,0,3.44Zm-20.61,0h-10.3a1.72,1.72,0,0,1,0-3.44h10.3a1.72,1.72,0,0,1,0,3.44Zm-20.6,0H1148a1.72,1.72,0,0,1,0-3.44h10.31a1.72,1.72,0,1,1,0,3.44Zm-20.61,0h-10.3a1.72,1.72,0,0,1,0-3.44h10.3a1.72,1.72,0,1,1,0,3.44Zm-20.61,0h-10.3a1.72,1.72,0,0,1,0-3.44h10.3a1.72,1.72,0,1,1,0,3.44Zm-20.6,0h-10.3a1.72,1.72,0,1,1,0-3.44h10.3a1.72,1.72,0,1,1,0,3.44Zm-20.61,0h-10.3a1.72,1.72,0,0,1,0-3.44h10.3a1.72,1.72,0,1,1,0,3.44Zm-20.6,0H1047a19,19,0,0,1-2.27-.14,1.72,1.72,0,1,1,.4-3.41,16.47,16.47,0,0,0,1.87.11h8.23a1.72,1.72,0,1,1,0,3.44Zm318.87-3a1.71,1.71,0,0,1-1.43-.76,1.72,1.72,0,0,1,.47-2.39,15.77,15.77,0,0,0,5.81-7.08,1.72,1.72,0,1,1,3.18,1.32,19.28,19.28,0,0,1-7.07,8.62A1.71,1.71,0,0,1,1374.13,1480.12Zm-338.48-1.21a1.68,1.68,0,0,1-1.11-.41,19.2,19.2,0,0,1-6-9.37,1.72,1.72,0,1,1,3.3-1,15.79,15.79,0,0,0,5,7.7,1.73,1.73,0,0,1,.19,2.43A1.7,1.7,0,0,1,1035.65,1478.91Zm346.26-16.76a1.72,1.72,0,0,1-1.72-1.72v-10.31a1.72,1.72,0,0,1,3.44,0v10.31A1.72,1.72,0,0,1,1381.91,1462.15Zm-352.43-2a1.72,1.72,0,0,1-1.72-1.72v-10.31a1.72,1.72,0,0,1,3.44,0v10.31A1.72,1.72,0,0,1,1029.48,1460.14Zm352.43-18.6a1.72,1.72,0,0,1-1.72-1.72v-10.3a1.72,1.72,0,1,1,3.44,0v10.3A1.72,1.72,0,0,1,1381.91,1441.54Zm-352.43-2a1.72,1.72,0,0,1-1.72-1.72v-10.3a1.72,1.72,0,0,1,3.44,0v10.3A1.72,1.72,0,0,1,1029.48,1439.53Zm352.43-18.6a1.72,1.72,0,0,1-1.72-1.72v-10.3a1.72,1.72,0,0,1,3.44,0v10.3A1.72,1.72,0,0,1,1381.91,1420.93Zm-352.43-2a1.72,1.72,0,0,1-1.72-1.72V1406.9a1.72,1.72,0,0,1,3.44,0v10.31A1.72,1.72,0,0,1,1029.48,1418.93Zm352.43-18.6a1.72,1.72,0,0,1-1.72-1.72V1388.3a1.72,1.72,0,0,1,3.44,0v10.31A1.72,1.72,0,0,1,1381.91,1400.33Zm-352.43-2a1.72,1.72,0,0,1-1.72-1.72v-10.3a1.72,1.72,0,0,1,3.44,0v10.3A1.72,1.72,0,0,1,1029.48,1398.32Zm352.43-18.6a1.72,1.72,0,0,1-1.72-1.72v-10.3a1.72,1.72,0,0,1,3.44,0V1378A1.72,1.72,0,0,1,1381.91,1379.72Zm-352.43-2a1.72,1.72,0,0,1-1.72-1.72v-10.3a1.72,1.72,0,0,1,3.44,0V1376A1.72,1.72,0,0,1,1029.48,1377.71Zm352.43-18.6a1.72,1.72,0,0,1-1.72-1.72v-10.3a1.72,1.72,0,0,1,3.44,0v10.3A1.72,1.72,0,0,1,1381.91,1359.11Zm-352.43-2a1.72,1.72,0,0,1-1.72-1.72v-10.31a1.72,1.72,0,0,1,3.44,0v10.31A1.72,1.72,0,0,1,1029.48,1357.11Zm352.43-18.6a1.72,1.72,0,0,1-1.72-1.72v-10.31a1.72,1.72,0,1,1,3.44,0v10.31A1.72,1.72,0,0,1,1381.91,1338.51Zm-352.43-2a1.72,1.72,0,0,1-1.72-1.72v-10.3a1.72,1.72,0,0,1,3.44,0v10.3A1.72,1.72,0,0,1,1029.48,1336.5Zm352.43-18.6a1.72,1.72,0,0,1-1.72-1.72v-10.3a1.72,1.72,0,1,1,3.44,0v10.3A1.72,1.72,0,0,1,1381.91,1317.9Zm-352.43-2a1.72,1.72,0,0,1-1.72-1.72v-10.3a1.72,1.72,0,0,1,3.44,0v10.3A1.72,1.72,0,0,1,1029.48,1315.89Zm352.43-18.6a1.72,1.72,0,0,1-1.72-1.72v-10.3a1.72,1.72,0,1,1,3.44,0v10.3A1.72,1.72,0,0,1,1381.91,1297.29Zm-352.43-2a1.72,1.72,0,0,1-1.72-1.72v-10.31a1.72,1.72,0,0,1,3.44,0v10.31A1.72,1.72,0,0,1,1029.48,1295.29Zm352.43-18.6a1.72,1.72,0,0,1-1.72-1.72v-10.3a1.72,1.72,0,1,1,3.44,0V1275A1.72,1.72,0,0,1,1381.91,1276.69Zm-352.43-2a1.72,1.72,0,0,1-1.72-1.72v-10.3a1.72,1.72,0,0,1,3.44,0V1273A1.72,1.72,0,0,1,1029.48,1274.68Zm352.43-18.6a1.72,1.72,0,0,1-1.72-1.72v-10.3a1.72,1.72,0,1,1,3.44,0v10.3A1.72,1.72,0,0,1,1381.91,1256.08Zm-352.43-2a1.72,1.72,0,0,1-1.72-1.72v-10.3a1.72,1.72,0,0,1,3.44,0v10.3A1.72,1.72,0,0,1,1029.48,1254.07Zm351.74-18.53a1.73,1.73,0,0,1-1.65-1.24,15.78,15.78,0,0,0-5-7.69,1.72,1.72,0,1,1,2.23-2.62,19.27,19.27,0,0,1,6.06,9.35,1.72,1.72,0,0,1-1.18,2.13A1.59,1.59,0,0,1,1381.22,1235.54Zm-350.39-1.89a1.71,1.71,0,0,1-1.59-2.39,19.27,19.27,0,0,1,7.09-8.6,1.72,1.72,0,0,1,1.91,2.86,15.84,15.84,0,0,0-5.83,7.07A1.71,1.71,0,0,1,1030.83,1233.65ZM1366.39,1223h-.2a16,16,0,0,0-1.84-.1h-8.26a1.72,1.72,0,0,1,0-3.44h8.26a20.87,20.87,0,0,1,2.24.12,1.72,1.72,0,0,1-.2,3.43Zm-20.6-.11h-10.3a1.72,1.72,0,1,1,0-3.44h10.3a1.72,1.72,0,1,1,0,3.44Zm-20.61,0h-10.3a1.72,1.72,0,0,1,0-3.44h10.3a1.72,1.72,0,1,1,0,3.44Zm-20.6,0h-10.31a1.72,1.72,0,0,1,0-3.44h10.31a1.72,1.72,0,1,1,0,3.44Zm-20.61,0h-10.3a1.72,1.72,0,0,1,0-3.44H1284a1.72,1.72,0,0,1,0,3.44Zm-20.61,0h-10.3a1.72,1.72,0,0,1,0-3.44h10.3a1.72,1.72,0,0,1,0,3.44Zm-20.6,0h-10.31a1.72,1.72,0,0,1,0-3.44h10.31a1.72,1.72,0,1,1,0,3.44Zm-20.61,0h-10.3a1.72,1.72,0,1,1,0-3.44h10.3a1.72,1.72,0,0,1,0,3.44Zm-20.61,0h-10.3a1.72,1.72,0,0,1,0-3.44h10.3a1.72,1.72,0,1,1,0,3.44Zm-20.6,0h-10.31a1.72,1.72,0,0,1,0-3.44h10.31a1.72,1.72,0,0,1,0,3.44Zm-20.61,0H1150a1.72,1.72,0,0,1,0-3.44h10.3a1.72,1.72,0,0,1,0,3.44Zm-20.61,0h-10.3a1.72,1.72,0,0,1,0-3.44h10.3a1.72,1.72,0,1,1,0,3.44Zm-20.6,0h-10.31a1.72,1.72,0,0,1,0-3.44h10.31a1.72,1.72,0,1,1,0,3.44Zm-20.61,0h-10.3a1.72,1.72,0,0,1,0-3.44h10.3a1.72,1.72,0,1,1,0,3.44Zm-20.6,0H1067.6a1.72,1.72,0,0,1,0-3.44h10.31a1.72,1.72,0,0,1,0,3.44Zm-20.61,0H1047a1.74,1.74,0,0,1-1.74-1.72,1.71,1.71,0,0,1,1.71-1.72h10.3a1.72,1.72,0,0,1,0,3.44Z" transform="translate(-273.22 -75.33)"/><rect class="cls-2" x="758.65" y="831.72" width="448.97" height="260.24" rx="9.57"/><path class="cls-5" d="M1205.69,985.55v103.24a8.12,8.12,0,0,0,12.57,6.78l78.46-51.63a8.11,8.11,0,0,0,0-13.55l-78.46-51.62A8.11,8.11,0,0,0,1205.69,985.55Z" transform="translate(-273.22 -75.33)"/><path class="cls-13" d="M1055.21,1143.81a8.06,8.06,0,1,1,8.06,8.06A8.06,8.06,0,0,1,1055.21,1143.81Z" transform="translate(-273.22 -75.33)"/><path class="cls-13" d="M1429.88,1146H1065.44a2.17,2.17,0,0,1-2.17-2.17h0a2.17,2.17,0,0,1,2.17-2.17h364.44a2.17,2.17,0,0,1,2.17,2.17h0A2.17,2.17,0,0,1,1429.88,1146Z" transform="translate(-273.22 -75.33)"/><rect class="cls-2" x="1178.52" y="1145.8" width="232.28" height="346.73"/><path class="cls-8" d="M1590.18,1332.54H1587v-14.29a9.3,9.3,0,0,1,9.29-9.29h39.3a6.13,6.13,0,0,0,5.92-4.57l6.21-23.62a6.13,6.13,0,0,0-5.91-7.68h-51.28v-3.17h51.28a9.29,9.29,0,0,1,9,11.66l-6.21,23.62a9.3,9.3,0,0,1-9,6.93h-39.3a6.12,6.12,0,0,0-6.11,6.12Z" transform="translate(-273.22 -75.33)"/><rect class="cls-5" x="1276.05" y="1182.77" width="88.17" height="26.81" rx="6.07"/><path class="cls-8" d="M1588.59,1391.85h0a8.74,8.74,0,0,1-8.74-8.74v-53a8.73,8.73,0,0,1,8.74-8.73h0a8.74,8.74,0,0,1,8.74,8.73v53A8.75,8.75,0,0,1,1588.59,1391.85Z" transform="translate(-273.22 -75.33)"/><path class="cls-7" d="M1923,1506.68s6,18.51,5.49,22.74-4.29,18.71-7,22.41-4-15.08-6.16-17.91-.44,7.08-1.94,8-4.64-7.28-6-10.17,3.29-13.56,3.31-21S1923,1506.68,1923,1506.68Z" transform="translate(-273.22 -75.33)"/><path class="cls-6" d="M1781.59,1359.61c-1.67-21.23,21.39-35.78,39.6-24.74l1.11.69c27.26,17.55,86.09,99.43,90.13,107.63s16,73.46,16,73.46-14.76,5.4-21.67-.21c0,0-24-61.88-27.49-65s-95.78-54.85-96.57-74.25C1782.49,1372.08,1782.08,1365.91,1781.59,1359.61Z" transform="translate(-273.22 -75.33)"/><path class="cls-14" d="M1946.2,1838.86s11,10,8.84,17.16-12.06,11.88-13.4,20.59-6.7,13.46-11.53,13.46h-23s-3.55-6.13,5-8,11.81-12.08,11.28-21.59a167.07,167.07,0,0,1,.8-22.17l18.23-4.22Z" transform="translate(-273.22 -75.33)"/><path class="cls-14" d="M1811.35,1864.8s2,22.83-2.86,25.21l-61.75-.13s0-7.13,9.92-8.71,27.34-7.39,30.29-20.33S1811.35,1864.8,1811.35,1864.8Z" transform="translate(-273.22 -75.33)"/><path class="cls-5" d="M1759.21,1542.33s3.26,40,7.09,88.12c5.2,65.34,11.46,145.6,12.08,160.81,1.06,26.4,5.36,68.63,5.36,68.63s10.18,10,30.56,5.81c0,0,18.16-60.29,23.35-124.08l.24-3.15c4.83-64.94,12.33-201.68,12.33-201.68Z" transform="translate(-273.22 -75.33)"/><path class="cls-9" d="M1759.21,1542.33s3.26,40,7.09,88.12l71.35,111.17.24-3.15c4.83-64.94,12.33-201.68,12.33-201.68Z" transform="translate(-273.22 -75.33)"/><path class="cls-5" d="M1774.08,1547.08s58.72,144.93,97.32,213,50.67,87.11,50.67,87.11,22.12-8.71,24.13-14.65c0,0-14.77-131.48-40.62-163.53-14.61-18.11-31.77-72.46-32.57-91.47s-5.23-56.62-5.23-56.62Z" transform="translate(-273.22 -75.33)"/><path class="cls-7" d="M1824.71,1329.7s-39.34,20-62.38,13.29a54.16,54.16,0,0,1,15.26-12.71c-.89-4.58-1.58-8.55-2-11.93a111.31,111.31,0,0,1-1.21-12.21l15.08-12.35,14.3-11.82C1803.26,1314.42,1824.71,1329.7,1824.71,1329.7Z" transform="translate(-273.22 -75.33)"/><path class="cls-8" d="M1863.78,1532.42c-15.88,9.61-30.92,16.84-48.51,20.9-20.76,4.92-46.27,3.47-54.8,4.77a3.53,3.53,0,0,1-2.49-.63c-.67-.34-4.44-25.66-8.21-57.62-.17-1.28-.34-2.58-.41-3.88l-.06-.43c-1.47-12.49-2.75-25.62-3.87-38.77-.91-10.23-1.66-20.35-2.18-29.86-.65-11.9-.92-22.82-.65-31.81.12-4.11.36-7.8.73-11,2.24-18.67,11.15-32,19.53-41.93l7-7.92a38.12,38.12,0,0,0,24.06-6.14c8.5-5.59,17.66-11.61,19.39-10.6,13,7.12,23.62,25.58,31.19,50a278.09,278.09,0,0,1,9.8,46.81c.69,5.23,1.27,10.6,1.72,16,.09,1,.16,2,.24,3,1,14.61,2.69,28.31,4.54,40.54,2.49,16.49,5.32,30.31,7.32,40,1,5,1.77,8.78,2.22,11.52C1870.71,1527.66,1865.92,1531.09,1863.78,1532.42Z" transform="translate(-273.22 -75.33)"/><path class="cls-10" d="M1804.27,1294.36s-9.67,18.5-28.68,24a111.31,111.31,0,0,1-1.21-12.21l15.08-12.35Z" transform="translate(-273.22 -75.33)"/><path class="cls-7" d="M1767.38,1305.75s38,5.45,41.11-17.91,10.08-38.4-14.06-42.86-30,3.84-33,11.4S1757.57,1303.74,1767.38,1305.75Z" transform="translate(-273.22 -75.33)"/><path class="cls-6" d="M1821.35,1241.65c.33-.4,1.12-.73,2.88-.86a7.05,7.05,0,0,0-3.31-.86c-.42-2.45-1.81-6.77-6.06-7.74a5.29,5.29,0,0,1,2.64,3.77c-5-4.93-15.55-8.38-44.54-5.52-38.21,3.78-25.11,28-20.1,30.86s17.33-5.43,26.57-4.89,11.27,13.86,14.43,15.63,1.87-1.45,6.07-3.45,4.74,5,3.61,9.6,4.81,10.5,4.81,10.5l5.76-6.45c5.75-6.46,10.76-33.4,8-39.07C1821.84,1242.67,1821.6,1242.16,1821.35,1241.65Z" transform="translate(-273.22 -75.33)"/><path class="cls-6" d="M1809.28,1397.17s-32,24.38-66,29.73c-.65-11.9-.92-22.82-.65-31.81Z" transform="translate(-273.22 -75.33)"/><path class="cls-7" d="M1612.45,1365.7c-.5-.54-7-22.39-18.33-20.79-7.38,1-19.43,5.3-16.23,15,1.26,3.82,23.73,17,23.73,17Z" transform="translate(-273.22 -75.33)"/><path class="cls-8" d="M1813.24,1350.05c18.27,10.93,16.79,38.16-2.75,46.62l-1.21.5c-30.09,12.07-130.91,12.63-139.94,11.18s-69.15-29.48-69.15-29.48,4.14-15.16,12.71-17.55c0,0,64.32,16.3,68.89,15.2s100.18-46.34,116.46-35.75C1802.55,1343.57,1807.82,1346.81,1813.24,1350.05Z" transform="translate(-273.22 -75.33)"/><path class="cls-15" d="M2491.45,632.8H2411.2a6.15,6.15,0,0,1-6.14-6.13h0a6.15,6.15,0,0,1,6.14-6.13h80.25a6.15,6.15,0,0,1,6.13,6.13h0A6.15,6.15,0,0,1,2491.45,632.8Z" transform="translate(-273.22 -75.33)"/><path class="cls-15" d="M2491.45,656.76H2411.2a6.15,6.15,0,0,1-6.14-6.13h0a6.15,6.15,0,0,1,6.14-6.13h80.25a6.15,6.15,0,0,1,6.13,6.13h0A6.15,6.15,0,0,1,2491.45,656.76Z" transform="translate(-273.22 -75.33)"/><path class="cls-15" d="M2491.45,681.34H2411.2a6.15,6.15,0,0,1-6.14-6.13h0a6.15,6.15,0,0,1,6.14-6.13h80.25a6.15,6.15,0,0,1,6.13,6.13h0A6.15,6.15,0,0,1,2491.45,681.34Z" transform="translate(-273.22 -75.33)"/><path class="cls-15" d="M2177.18,1260h-191a8.16,8.16,0,0,1-8.13-8.13h0a8.16,8.16,0,0,1,8.13-8.14h191a8.15,8.15,0,0,1,8.13,8.14h0A8.15,8.15,0,0,1,2177.18,1260Z" transform="translate(-273.22 -75.33)"/><path class="cls-15" d="M1243.27,701.79h-191a8.16,8.16,0,0,1-8.14-8.13h0a8.16,8.16,0,0,1,8.14-8.13h191a8.16,8.16,0,0,1,8.13,8.13h0A8.16,8.16,0,0,1,1243.27,701.79Z" transform="translate(-273.22 -75.33)"/><path class="cls-15" d="M2177.18,1340.67h-191a8.16,8.16,0,0,1-8.13-8.13h0a8.16,8.16,0,0,1,8.13-8.14h191a8.15,8.15,0,0,1,8.13,8.14h0A8.15,8.15,0,0,1,2177.18,1340.67Z" transform="translate(-273.22 -75.33)"/><path class="cls-15" d="M2177.18,1300.33h-228.5a8.16,8.16,0,0,1-8.14-8.13h0a8.16,8.16,0,0,1,8.14-8.14h228.5a8.15,8.15,0,0,1,8.13,8.14h0A8.15,8.15,0,0,1,2177.18,1300.33Z" transform="translate(-273.22 -75.33)"/><rect class="cls-15" x="799.35" y="661.33" width="120.18" height="16.27" rx="3.64"/><path class="cls-15" d="M1036.87,744.8a8.13,8.13,0,1,1,8.13,8.13A8.14,8.14,0,0,1,1036.87,744.8Z" transform="translate(-273.22 -75.33)"/><rect class="cls-15" x="799.35" y="693.7" width="141.17" height="16.26" rx="3.95"/><path class="cls-15" d="M1036.87,777.16a8.13,8.13,0,1,1,8.13,8.14A8.13,8.13,0,0,1,1036.87,777.16Z" transform="translate(-273.22 -75.33)"/><rect class="cls-15" x="799.35" y="728.83" width="120.18" height="16.27" rx="3.64"/><path class="cls-15" d="M1036.87,812.3a8.13,8.13,0,1,1,8.13,8.13A8.13,8.13,0,0,1,1036.87,812.3Z" transform="translate(-273.22 -75.33)"/><path class="cls-6" d="M1382.66,771.14a27.9,27.9,0,0,1-4.3.27,28.69,28.69,0,0,1-19.72-49.21h0a28.69,28.69,0,1,1,24,48.94Zm-20.72-45.56a24,24,0,1,0,33.9.39,24,24,0,0,0-33.9-.39Z" transform="translate(-273.22 -75.33)"/><rect class="cls-6" x="1343.49" y="755.23" width="4.73" height="39.16" transform="translate(686.18 -804.62) rotate(45.66)"/><path class="cls-6" d="M1322.12,798h0a4.22,4.22,0,0,1,.07-6l16.49-16.12a4.24,4.24,0,0,1,6,.07h0a4.22,4.22,0,0,1-.07,6l-16.49,16.12A4.24,4.24,0,0,1,1322.12,798Z" transform="translate(-273.22 -75.33)"/><path class="cls-6" d="M2720.28,1890.61h0a9.43,9.43,0,0,1-8.58-5.91l-220.45-671.22c-1.07-3.28,1-6,4.68-6h0a9.43,9.43,0,0,1,8.58,5.9L2725,1884.62C2726,1887.91,2723.94,1890.59,2720.28,1890.61Z" transform="translate(-273.22 -75.33)"/><path class="cls-6" d="M2898,1889.58h0a9.42,9.42,0,0,1-8.58-5.91l-220.45-671.22c-1.08-3.28,1-6,4.68-6h0c3.65,0,7.5,2.62,8.57,5.91l220.45,671.21C2903.7,1886.88,2901.61,1889.56,2898,1889.58Z" transform="translate(-273.22 -75.33)"/><path class="cls-6" d="M2706.65,1306l-178.41,1a8.94,8.94,0,0,1-8.1-5.57h0c-1-3.09,1-5.64,4.41-5.65l178.41-1a8.92,8.92,0,0,1,8.1,5.58h0C2712.08,1303.42,2710.09,1306,2706.65,1306Z" transform="translate(-273.22 -75.33)"/><path class="cls-6" d="M2745.14,1423.17l-178.41,1a8.93,8.93,0,0,1-8.1-5.58h0c-1-3.09,1-5.63,4.41-5.65l178.41-1a9,9,0,0,1,8.1,5.58h0C2750.57,1420.61,2748.58,1423.15,2745.14,1423.17Z" transform="translate(-273.22 -75.33)"/><path class="cls-6" d="M2782.21,1536l-178.41,1a8.93,8.93,0,0,1-8.1-5.58h0c-1-3.09,1-5.63,4.41-5.65l178.41-1a8.93,8.93,0,0,1,8.1,5.57h0C2787.63,1533.48,2785.65,1536,2782.21,1536Z" transform="translate(-273.22 -75.33)"/><path class="cls-6" d="M2823.94,1663.11l-178.41,1a8.91,8.91,0,0,1-8.09-5.57h0c-1-3.09,1-5.63,4.41-5.66l178.41-1a8.91,8.91,0,0,1,8.09,5.58h0C2829.37,1660.55,2827.38,1663.09,2823.94,1663.11Z" transform="translate(-273.22 -75.33)"/><path class="cls-6" d="M2867.62,1796.11l-178.41,1a8.93,8.93,0,0,1-8.1-5.58h0c-1-3.09,1-5.63,4.42-5.65l178.41-1a8.91,8.91,0,0,1,8.09,5.58h0C2873.05,1793.55,2871.06,1796.09,2867.62,1796.11Z" transform="translate(-273.22 -75.33)"/><path class="cls-6" d="M2483.56,906.06h0a2.6,2.6,0,0,1-3-2l-2.85-14.75a2.59,2.59,0,0,1,2-3h0a2.59,2.59,0,0,1,3,2l2.86,14.75A2.6,2.6,0,0,1,2483.56,906.06Z" transform="translate(-273.22 -75.33)"/><rect class="cls-6" x="2476.08" y="861.15" width="1.78" height="21.71" transform="translate(-393.78 411.17) rotate(-10.95)"/><path class="cls-7" d="M2475.78,741.2s-1.68-14.68-5.24-20.29-17-9.22-17.86-8.4c-2.63,2.56,7.78,11.57,8.19,14.9s-5.29,1-2.55,7.5c2.31,5.47,9.92,12.57,9.92,12.57Z" transform="translate(-273.22 -75.33)"/><path class="cls-9" d="M2469.3,739.57c4.9-3.85,5.95-3.78,5.95-3.78s45.36,39.3,49.78,42.8,72.55,23.26,72.55,23.26l10.83,55.39s-92.2-44.53-103.21-53.62c-18.21-15-41.18-57-41.18-57A17.4,17.4,0,0,1,2469.3,739.57Z" transform="translate(-273.22 -75.33)"/><path class="cls-6" d="M2599.05,1271.89s-.79,18.93-4.42,23.54l-50.57.29c.35-2,.57-6.47,7.56-7.69a33.94,33.94,0,0,0,24.56-19.38C2581.81,1256.36,2599.05,1271.89,2599.05,1271.89Z" transform="translate(-273.22 -75.33)"/><path class="cls-6" d="M2698.28,1269.16s3.53,25.15-1.26,25.59c-.64.06-20.38.38-28.93.52-10.05.17-26.57-.18-26.57-.18a2.63,2.63,0,0,1-2.38-4c1.16-2,3.38-4.06,7.6-4.87,8.8-1.7,23.48-8.17,28.63-19.94C2680.78,1253.94,2698.28,1269.16,2698.28,1269.16Z" transform="translate(-273.22 -75.33)"/><path class="cls-6" d="M2572.75,1011.45s14.06,49.2,54.36,134.64,42,126.62,42,126.62a35.36,35.36,0,0,0,14.2,1.29,38.09,38.09,0,0,0,14.93-4.84s-2.61-101.7-21.64-144.81-22.92-161.11-22.92-161.11Z" transform="translate(-273.22 -75.33)"/><path class="cls-8" d="M2550.18,969.11s-1.12,76.19,12.06,169.73,7,137.05,7,137.05,3.49,2.55,14.24,2.5c12.58-.05,19-5.24,19-5.24s18.87-93.58,13.46-140.4,25.84-160.67,25.84-160.67Z" transform="translate(-273.22 -75.33)"/><path class="cls-7" d="M2612.47,790.82l-14.89,11-21.52-4.53c.3-2,1.72-10.1,3-17.46.08-.44.16-.87.23-1.3,1.11-6.27,2.07-11.65,2.07-11.65l20.1-10,7.49-3.74c0,.14-.58,7-.66,8C2606.9,778.8,2612.47,790.82,2612.47,790.82Z" transform="translate(-273.22 -75.33)"/><path class="cls-5" d="M2655.12,978.52c-4.86,22.27-109.07,12.49-107.71-1.1.05-.45.32-6.75.7-15.22.79-18.35,2-47,2.15-49.25,0,0,0-.08,0-.12,1.88-18.93,3.68-37.44,3.79-49.53a172.78,172.78,0,0,1,3.47-30.94c1.78-9,3.95-17.14,5.84-23.5a26,26,0,0,1,7.11-11.51,25.7,25.7,0,0,1,8.12-5.18,23.53,23.53,0,0,1,2.52-.88c12.26-3.56,29.24-8,33.83-6.62,12.46,3.67,21.71,25.6,28.26,53.55C2655.47,890.54,2658.31,964,2655.12,978.52Z" transform="translate(-273.22 -75.33)"/><path class="cls-10" d="M2606.79,761.42c-4.41,8.45-20.86,15.75-27.72,18.44.08-.44.16-.87.23-1.3,1.11-6.27,2.07-11.65,2.07-11.65l20.1-10C2605.91,756.82,2608.62,757.94,2606.79,761.42Z" transform="translate(-273.22 -75.33)"/><path class="cls-7" d="M2571.6,765.73s36.26,11.31,43-11.38,15.89-36.51-7-44.69-29.95-.86-34,6.17S2562.34,762.2,2571.6,765.73Z" transform="translate(-273.22 -75.33)"/><path class="cls-6" d="M2575,713.64s2.31,26.41,7.77,25.26,10.42-2,9.62,6-8.37,17.15,8.45,18.56,41-42,36.4-50.21C2623.88,689.51,2555.7,684.72,2575,713.64Z" transform="translate(-273.22 -75.33)"/><path class="cls-9" d="M2548.11,962.2c.79-18.35,2-47,2.15-49.25,0,0,0-.08,0-.12L2611.83,876S2614.21,962,2548.11,962.2Z" transform="translate(-273.22 -75.33)"/><path class="cls-7" d="M2499.18,885.17s-12.51-8.46-14.89-9.2-10.15-1.53-10.51-.92-1.43,2.49-.07,3.12,3.05.42,2.54.86-5.62-2-6.8.62-2.22,11.54,3.79,14.25,20.81.26,21.88.57C2504.18,897.1,2499.18,885.17,2499.18,885.17Z" transform="translate(-273.22 -75.33)"/><path class="cls-5" d="M2499.06,882.89s61.06,10.38,66.47,7.74c8.64-4.2-3.35-66.16-3.35-66.16s-.51-14,15.89-17.35c14.25-2.88,28,7.8,28,7.8s12.5,11.19,10.91,23.6c-3.54,27.51-9.05,83.47-27.46,92-23.73,11.07-92.41-30.67-92.41-30.67s-2.28-2.8-2-8C2495.44,887.3,2499.06,882.89,2499.06,882.89Z" transform="translate(-273.22 -75.33)"/><path class="cls-7" d="M2458,734.17s-3.91-7.77-4.53-9.23.89-1.14,2.4-.32,3.55,5.32,5.87,4.77C2463.61,729,2458,734.17,2458,734.17Z" transform="translate(-273.22 -75.33)"/><path class="cls-16" d="M1018.37,1809.87q0-17.65,10.66-29.24t29.55-11.58q19.5,0,29.85,11.58t10.36,29.24q0,17.69-10.36,29.25t-29.85,11.58q-18.88,0-29.55-11.58T1018.37,1809.87Z" transform="translate(-273.22 -75.33)"/><path class="cls-5" d="M2186.34,1633a102.15,102.15,0,0,0-37.42,6.66,78.47,78.47,0,0,0-29.49,20q-12.37,13.32-19.66,32.67t-7.3,44.72q0,50.1,26,76.42t67.87,26.33q24.09,0,41.23-6.35c11.42-4.22,22.9-8.67,31.36-14.25a37.48,37.48,0,0,1,11.77,11.08q5.07,7,5.08,17.13,0,19.66-25.69,33t-67.55,13.32q-34.89,0-63.75-9.51A132.07,132.07,0,0,1,2069,1855q-20.92-19.65-32.66-49.16T2024.6,1737q0-39.33,12.37-69.14t33.62-49.47a139,139,0,0,1,49.79-29.5,183.79,183.79,0,0,1,60.26-9.83,171.11,171.11,0,0,1,37.73,3.81,109.9,109.9,0,0,1,28.86,10.46q12,6.66,18.71,15.23t6.66,18.07a28.91,28.91,0,0,1-4.76,16.18,32.66,32.66,0,0,1-11.73,11.1,183.24,183.24,0,0,0-29.49-14.59Q2210.45,1633,2186.34,1633Z" transform="translate(-273.22 -75.33)"/><path class="cls-16" d="M2341.1,1496.65q0-16.49,11.41-27.59t29.18-11.1q17.74,0,28.54,11.1t10.78,27.59q0,16.5-10.78,27.59t-28.54,11.1q-17.76,0-29.18-11.1T2341.1,1496.65Z" transform="translate(-273.22 -75.33)"/><path class="cls-5" d="M2414.67,1883.55a65.27,65.27,0,0,1-12.37,3.49,93.41,93.41,0,0,1-18.07,1.58q-18.41,0-27.28-7t-8.88-23.47v-268.3q5.07-1.26,13-3.17a78.28,78.28,0,0,1,18.08-1.9q18.39,0,27,7t8.56,24.1Z" transform="translate(-273.22 -75.33)"/><path class="cls-5" d="M2870.07,1888.62q-18.42,0-27.28-7t-8.88-23.47v-385q4.44-1.26,12.69-3.17a78.77,78.77,0,0,1,17.76-1.9q18.38,0,27.27,7t8.88,23.47v385a86.45,86.45,0,0,1-13,3.49A89.77,89.77,0,0,1,2870.07,1888.62Z" transform="translate(-273.22 -75.33)"/><g class="cls-17"><path class="cls-5" d="M2414.66,1622.43v37.2c-21.19,178.42-141.71,221.25-197.38,231.31-17.19,3.11-28.17,2.67-28.17,2.67v-53.84c11.76-.28,22.71-1.44,32.7-4.46,122.27-37,126.25-175.68,126.25-175.68v-69.74s52.31-15.72,64.15,10.57C2412.21,1600.46,2414.66,1606.87,2414.66,1622.43Z" transform="translate(-273.22 -75.33)"/><path class="cls-5" d="M2900.49,1845.4v38.14C2828.43,1904,2833.9,1858,2833.9,1858v-29.4a80.79,80.79,0,0,0-80.81-80.76h-73.94V1699h74.92A146.39,146.39,0,0,1,2900.49,1845.4Z" transform="translate(-273.22 -75.33)"/></g><path class="cls-9" d="M1738.78,432.06q5.73,4.1,16.1,4.09a38.69,38.69,0,0,0,9.83-1.36,46.62,46.62,0,0,0,9-3.28,28.63,28.63,0,0,1,3.42,4.92,13.52,13.52,0,0,1,1.5,6.55q0,7.09-7.24,11.74t-22,4.64q-20.48,0-32.62-9.15t-12.15-30.16V292.58q1.92-.54,5.46-1.37a34.38,34.38,0,0,1,7.65-.82q7.9,0,11.6,3t3.68,10.1v27h42.31a18.88,18.88,0,0,1,2.05,4.64,20.81,20.81,0,0,1,.95,6.28q0,11.73-10.1,11.74H1733v65Q1733,428,1738.78,432.06Z" transform="translate(-273.22 -75.33)"/><path class="cls-9" d="M1826.75,406.09q3.81,15.56,14.87,23.06t28.25,7.51c7.65,0,14.72-2,21.06-4a82,82,0,0,0,15.8-6.87c5.09,2.92,7.09,6.65,7.09,11.92a12.62,12.62,0,0,1-3.55,8.6,29.46,29.46,0,0,1-9.69,6.82,62.36,62.36,0,0,1-14.46,4.51,92.82,92.82,0,0,1-17.88,1.64,89.83,89.83,0,0,1-28.8-4.37,59.85,59.85,0,0,1-22.25-13.1,58.74,58.74,0,0,1-14.33-21.57q-5.05-12.82-5-29.75,0-16.38,4.92-28.8A59.07,59.07,0,0,1,1816.1,341,57,57,0,0,1,1836,328.3a68.45,68.45,0,0,1,24.57-4.37,64.88,64.88,0,0,1,23.88,4.23A55.59,55.59,0,0,1,1903,339.9a51.47,51.47,0,0,1,12,17.88,59.38,59.38,0,0,1,4.23,22.65q0,6.82-3.27,10t-9.56,4.24Zm33.85-60q-15,0-25,10.1t-10.51,28.93l67.15-9.55a34.42,34.42,0,0,0-9-20.88Q1875.33,346,1860.6,346Z" transform="translate(-273.22 -75.33)"/><path class="cls-9" d="M2011.19,347.17a43.9,43.9,0,0,0-16.11,2.87,33.83,33.83,0,0,0-12.69,8.59,42.34,42.34,0,0,0-8.46,14.06,54.23,54.23,0,0,0-3.14,19.25q0,21.56,11.19,32.89t29.21,11.32a51,51,0,0,0,17.74-2.73,56.08,56.08,0,0,0,12.83-6.55,20,20,0,0,1,5.73,5.19,12.16,12.16,0,0,1,2.18,7.37q0,8.46-11.05,14.19t-29.07,5.74a87.2,87.2,0,0,1-27.43-4.1,56.76,56.76,0,0,1-21.43-12.56,57.89,57.89,0,0,1-14.06-21.15q-5.06-12.69-5.05-29.61t5.33-29.76a58.07,58.07,0,0,1,35.89-34,79.07,79.07,0,0,1,25.93-4.23,73.2,73.2,0,0,1,16.24,1.64,47.21,47.21,0,0,1,12.42,4.5,25.86,25.86,0,0,1,8,6.55,12.36,12.36,0,0,1,.82,14.74,14,14,0,0,1-5,4.78,78.12,78.12,0,0,0-12.69-6.28Q2021.56,347.17,2011.19,347.17Z" transform="translate(-273.22 -75.33)"/><path class="cls-16" d="M2369,441.07a18.59,18.59,0,0,1,4.78-13.11q4.77-5.18,13.24-5.18,8.73,0,13.37,5.18a20.83,20.83,0,0,1,0,26.21q-4.64,5.18-13.37,5.19-8.48,0-13.24-5.19A18.55,18.55,0,0,1,2369,441.07Z" transform="translate(-273.22 -75.33)"/><g class="cls-17"><path class="cls-9" d="M1875.21,459s78.08-4,96.31-77.51h-29.28s-10.85,46.5-67,54.86Z" transform="translate(-273.22 -75.33)"/><path class="cls-9" d="M1803,441c-30.47,26.51-70,16.69-70,16.69l.13-37.9c.24,5,2,12.39,11.57,15.18a39.89,39.89,0,0,0,23.73-1.25c27.55-9.24,29.23-45.52,29.23-45.52l27.31-3a41.48,41.48,0,0,0-.28,5.48C1824.82,409.81,1817.39,428.41,1803,441Z" transform="translate(-273.22 -75.33)"/><polygon class="cls-9" points="1459.8 373.25 1459.85 356.23 1459.85 373.25 1459.8 373.25"/></g></g></g></svg>